<svg xmlns="http://www.w3.org/2000/svg" xmlns:xlink="http://www.w3.org/1999/xlink" version="1.1" x="0px" y="0px" viewBox="0 0 64 80" enable-background="new 0 0 64 64" xml:space="preserve"><g><g><path d="M47.301,62.368c-7.533,0-13.661-6.128-13.661-13.661s6.128-13.661,13.661-13.661c7.532,0,13.661,6.128,13.661,13.661    S54.833,62.368,47.301,62.368z M47.301,38.657c-5.542,0-10.051,4.509-10.051,10.051s4.509,10.051,10.051,10.051    s10.051-4.509,10.051-10.051S52.843,38.657,47.301,38.657z"/><path d="M51.777,50.099c-0.169-0.424-0.415-0.808-0.734-1.14c-0.312-0.324-0.69-0.619-1.124-0.875    c-0.423-0.25-0.909-0.491-1.443-0.715c-0.131-0.054-0.257-0.108-0.378-0.16c-0.242-0.105-0.452-0.202-0.644-0.297    c-0.283-0.139-0.529-0.282-0.734-0.429c-0.004-0.003-0.009-0.007-0.014-0.01c-0.188-0.137-0.336-0.284-0.437-0.435    c-0.092-0.138-0.136-0.29-0.136-0.465c0-0.159,0.039-0.297,0.121-0.424c0.084-0.132,0.207-0.248,0.366-0.345    c0.025-0.015,0.049-0.029,0.08-0.045c0.153-0.083,0.338-0.15,0.551-0.199c0.229-0.054,0.485-0.084,0.768-0.089    c0.028-0.001,0.057-0.001,0.086-0.001c0.235-0.001,0.487,0.017,0.753,0.053c0.26,0.036,0.526,0.091,0.79,0.164    c0.26,0.072,0.519,0.165,0.769,0.276c0.228,0.103,0.49,0.083,0.701-0.053c0.211-0.136,0.337-0.367,0.337-0.618v-1.152    c0-0.553-0.377-1.035-0.916-1.171c-0.228-0.058-0.476-0.108-0.736-0.149c-0.464-0.072-0.991-0.113-1.57-0.124v-0.884h-1.866v1.019    c-0.151,0.027-0.301,0.058-0.447,0.093c-0.644,0.154-1.222,0.401-1.717,0.733c-0.5,0.335-0.901,0.77-1.192,1.29    c-0.293,0.524-0.441,1.155-0.441,1.873c0,0.922,0.271,1.722,0.806,2.377c0.525,0.643,1.327,1.192,2.383,1.631    c0.247,0.101,0.497,0.207,0.742,0.314c0.129,0.057,0.254,0.114,0.376,0.169c0.331,0.15,0.624,0.311,0.868,0.475    c0.043,0.029,0.084,0.058,0.126,0.091c0.172,0.13,0.313,0.269,0.418,0.415c0.119,0.163,0.177,0.345,0.177,0.554    c0,0.151-0.035,0.287-0.108,0.415c-0.073,0.129-0.189,0.244-0.344,0.344c-0.033,0.021-0.069,0.042-0.111,0.064    c-0.144,0.075-0.317,0.137-0.514,0.185c-0.232,0.056-0.502,0.087-0.807,0.093c-0.035,0.001-0.071,0.002-0.107,0.002    c-0.605-0.001-1.222-0.107-1.82-0.321c-0.319-0.114-0.631-0.262-0.927-0.439c-0.229-0.137-0.504-0.14-0.736-0.009    c-0.232,0.131-0.37,0.369-0.37,0.635v1.305c0,0.513,0.327,0.972,0.815,1.142c0.322,0.112,0.678,0.205,1.059,0.277    c0.592,0.111,1.22,0.173,1.869,0.185v0.884h1.866v-1.011c0.132-0.022,0.268-0.047,0.41-0.077c0.655-0.139,1.24-0.373,1.737-0.695    c0.505-0.326,0.91-0.759,1.205-1.288c0.296-0.529,0.446-1.186,0.446-1.955C52.032,51.022,51.946,50.524,51.777,50.099z"/></g><g><path d="M34.892,58.493H10.545c-1.798,0-3.255-1.458-3.255-3.255V8.763c0-1.798,1.458-3.255,3.255-3.255h31.991h3.625    c1.772,0,3.218,1.417,3.255,3.189l0.074,3.609V33.05c1.493,0.208,2.921,0.624,4.251,1.22V10.179V6.991    c0-3.168-2.568-5.736-5.736-5.736h-3.344H8.69c-3.121,0-5.651,2.53-5.651,5.651v50.187c0,3.121,2.53,5.651,5.651,5.651h31.343    C38.031,61.704,36.28,60.249,34.892,58.493z"/></g><g><path d="M42.607,19.589H14.173c-0.903,0-1.635-0.732-1.635-1.635c0-0.903,0.732-1.635,1.635-1.635h28.434    c0.903,0,1.635,0.732,1.635,1.635C44.242,18.857,43.51,19.589,42.607,19.589z"/><path d="M42.607,28.953H14.173c-0.903,0-1.635-0.732-1.635-1.635c0-0.903,0.732-1.635,1.635-1.635h28.434    c0.903,0,1.635,0.732,1.635,1.635C44.242,28.221,43.51,28.953,42.607,28.953z"/><g><path d="M32.085,44.411H14.173c-0.903,0-1.635,0.732-1.635,1.635s0.732,1.635,1.635,1.635h17.353     C31.598,46.556,31.788,45.461,32.085,44.411z"/></g><path d="M39.351,35.047H14.173c-0.903,0-1.635,0.732-1.635,1.635s0.732,1.635,1.635,1.635h21.223    C36.525,37.025,37.861,35.918,39.351,35.047z"/></g></g><text x="0" y="79" fill="#000000" font-size="5px" font-weight="bold" font-family="'Helvetica Neue', Helvetica, Arial-Unicode, Arial, Sans-serif">Created by Arafat Uddin</text><text x="0" y="84" fill="#000000" font-size="5px" font-weight="bold" font-family="'Helvetica Neue', Helvetica, Arial-Unicode, Arial, Sans-serif">from the Noun Project</text></svg>